<svg width="28" height="28" viewBox="0 0 28 28" fill="none" xmlns="http://www.w3.org/2000/svg">
<path d="M11.1417 17.675L21.0292 7.7875C21.2625 7.55417 21.5347 7.4375 21.8458 7.4375C22.157 7.4375 22.4292 7.55417 22.6625 7.7875C22.8958 8.02083 23.0125 8.29811 23.0125 8.61933C23.0125 8.94056 22.8958 9.21744 22.6625 9.45L11.9583 20.1833C11.725 20.4167 11.4528 20.5333 11.1417 20.5333C10.8306 20.5333 10.5583 20.4167 10.325 20.1833L5.30834 15.1667C5.07501 14.9333 4.96301 14.6564 4.97234 14.336C4.98167 14.0156 5.1034 13.7383 5.33751 13.5042C5.57162 13.2701 5.8489 13.1534 6.16934 13.1542C6.48978 13.1549 6.76667 13.2716 7.00001 13.5042L11.1417 17.675Z" fill="#7497F1"/>
</svg>
