<svg width="28" height="28" viewBox="0 0 28 28" fill="none" xmlns="http://www.w3.org/2000/svg">
<path d="M14 18.1708C13.8444 18.1708 13.6986 18.1467 13.5625 18.0985C13.4263 18.0503 13.3 17.9674 13.1833 17.85L8.98329 13.65C8.74996 13.4167 8.63796 13.1444 8.64729 12.8333C8.65663 12.5222 8.76863 12.25 8.98329 12.0167C9.21663 11.7833 9.4939 11.662 9.81513 11.6527C10.1363 11.6433 10.4132 11.7549 10.6458 11.9875L12.8333 14.175V5.83333C12.8333 5.50278 12.9453 5.22589 13.1693 5.00267C13.3933 4.77945 13.6702 4.66745 14 4.66667C14.3297 4.66589 14.607 4.77789 14.8318 5.00267C15.0566 5.22745 15.1682 5.50433 15.1666 5.83333V14.175L17.3541 11.9875C17.5875 11.7542 17.8647 11.6422 18.186 11.6515C18.5072 11.6608 18.7841 11.7826 19.0166 12.0167C19.2305 12.25 19.3425 12.5222 19.3526 12.8333C19.3627 13.1444 19.2507 13.4167 19.0166 13.65L14.8166 17.85C14.7 17.9667 14.5736 18.0495 14.4375 18.0985C14.3013 18.1475 14.1555 18.1716 14 18.1708ZM6.99996 23.3333C6.35829 23.3333 5.80918 23.1051 5.35263 22.6485C4.89607 22.1919 4.6674 21.6424 4.66663 21V18.6667C4.66663 18.3361 4.77863 18.0592 5.00263 17.836C5.22663 17.6128 5.50351 17.5008 5.83329 17.5C6.16307 17.4992 6.44035 17.6112 6.66513 17.836C6.8899 18.0608 7.00151 18.3377 6.99996 18.6667V21H21V18.6667C21 18.3361 21.112 18.0592 21.336 17.836C21.56 17.6128 21.8368 17.5008 22.1666 17.5C22.4964 17.4992 22.7737 17.6112 22.9985 17.836C23.2232 18.0608 23.3348 18.3377 23.3333 18.6667V21C23.3333 21.6417 23.105 22.1912 22.6485 22.6485C22.1919 23.1058 21.6424 23.3341 21 23.3333H6.99996Z" fill="#7497F1"/>
</svg>
