<svg width="28" height="28" viewBox="0 0 28 28" fill="none" xmlns="http://www.w3.org/2000/svg">
<path d="M9.33333 2.33333H18.6667C20.5232 2.33333 22.3037 3.07083 23.6164 4.38359C24.9292 5.69634 25.6667 7.47682 25.6667 9.33333V18.6667C25.6667 20.5232 24.9292 22.3037 23.6164 23.6164C22.3037 24.9292 20.5232 25.6667 18.6667 25.6667H9.33333C7.47682 25.6667 5.69634 24.9292 4.38359 23.6164C3.07083 22.3037 2.33333 20.5232 2.33333 18.6667L2.33333 9.33333C2.33333 7.47682 3.07083 5.69634 4.38359 4.38359C5.69634 3.07083 7.47682 2.33333 9.33333 2.33333ZM16.3333 12.8333C16.0239 12.8333 15.7272 12.9562 15.5084 13.175C15.2896 13.3938 15.1667 13.6906 15.1667 14C15.1667 14.3094 15.2896 14.6062 15.5084 14.825C15.7272 15.0438 16.0239 15.1667 16.3333 15.1667H19.8333C20.1428 15.1667 20.4395 15.0438 20.6583 14.825C20.8771 14.6062 21 14.3094 21 14C21 13.6906 20.8771 13.3938 20.6583 13.175C20.4395 12.9562 20.1428 12.8333 19.8333 12.8333H16.3333ZM14 17.5C13.6906 17.5 13.3938 17.6229 13.175 17.8417C12.9562 18.0605 12.8333 18.3572 12.8333 18.6667C12.8333 18.9761 12.9562 19.2728 13.175 19.4916C13.3938 19.7104 13.6906 19.8333 14 19.8333H19.8333C20.1428 19.8333 20.4395 19.7104 20.6583 19.4916C20.8771 19.2728 21 18.9761 21 18.6667C21 18.3572 20.8771 18.0605 20.6583 17.8417C20.4395 17.6229 20.1428 17.5 19.8333 17.5H14ZM14 8.16667C13.6906 8.16667 13.3938 8.28958 13.175 8.50838C12.9562 8.72717 12.8333 9.02391 12.8333 9.33333C12.8333 9.64275 12.9562 9.9395 13.175 10.1583C13.3938 10.3771 13.6906 10.5 14 10.5H19.8333C20.1428 10.5 20.4395 10.3771 20.6583 10.1583C20.8771 9.9395 21 9.64275 21 9.33333C21 9.02391 20.8771 8.72717 20.6583 8.50838C20.4395 8.28958 20.1428 8.16667 19.8333 8.16667H14ZM8.37467 14.65L7.54983 13.8252C7.44221 13.7137 7.31348 13.6249 7.17114 13.5637C7.0288 13.5026 6.87571 13.4704 6.7208 13.469C6.56589 13.4677 6.41227 13.4972 6.26889 13.5559C6.12551 13.6145 5.99525 13.7012 5.88571 13.8107C5.77616 13.9203 5.68954 14.0505 5.63088 14.1939C5.57221 14.3373 5.5427 14.4909 5.54404 14.6458C5.54539 14.8007 5.57757 14.9538 5.63872 15.0961C5.69986 15.2385 5.78874 15.3672 5.90017 15.4748L7.54983 17.1245C7.65819 17.233 7.78686 17.319 7.92849 17.3777C8.07012 17.4365 8.22193 17.4667 8.37525 17.4667C8.52857 17.4667 8.68038 17.4365 8.82201 17.3777C8.96364 17.319 9.09231 17.233 9.20067 17.1245L12.5 13.8252C12.7191 13.6064 12.8423 13.3096 12.8425 13C12.8427 12.6904 12.7199 12.3934 12.5012 12.1743C12.2824 11.9553 11.9856 11.8321 11.676 11.8319C11.3664 11.8316 11.0694 11.9544 10.8503 12.1732L8.37467 14.6488V14.65Z" fill="white"/>
</svg>
