<svg width="20" height="20" viewBox="0 0 20 20" fill="none" xmlns="http://www.w3.org/2000/svg">
<path d="M10 6.22636C9.67156 6.22586 9.34625 6.29019 9.04271 6.41565C8.73917 6.54111 8.46338 6.72524 8.23113 6.95749C7.99889 7.18973 7.81476 7.46553 7.6893 7.76906C7.56383 8.0726 7.49951 8.39791 7.5 8.72636C7.5 9.3894 7.76339 10.0253 8.23223 10.4941C8.70107 10.963 9.33696 11.2264 10 11.2264H15.55L15.275 10.9514C15.1094 10.7736 15.0192 10.5386 15.0235 10.2957C15.0278 10.0528 15.1262 9.8211 15.298 9.64933C15.4697 9.47756 15.7015 9.37917 15.9443 9.37489C16.1872 9.3706 16.4223 9.46076 16.6 9.62636L18.475 11.5014C18.6506 11.6771 18.7492 11.9154 18.7492 12.1639C18.7492 12.4123 18.6506 12.6506 18.475 12.8264L16.6 14.7014C16.5142 14.7935 16.4107 14.8673 16.2957 14.9186C16.1807 14.9698 16.0565 14.9974 15.9307 14.9996C15.8048 15.0018 15.6797 14.9787 15.563 14.9315C15.4463 14.8844 15.3402 14.8142 15.2512 14.7252C15.1622 14.6361 15.092 14.5301 15.0448 14.4134C14.9977 14.2966 14.9745 14.1716 14.9768 14.0457C14.979 13.9198 15.0065 13.7957 15.0578 13.6807C15.109 13.5657 15.1829 13.4622 15.275 13.3764L15.55 13.1014H10C9.23501 13.1015 8.48336 12.901 7.82003 12.52C7.1567 12.139 6.60487 11.5906 6.2196 10.9298C5.83432 10.2689 5.62907 9.51852 5.62432 8.75355C5.61956 7.98858 5.81547 7.23573 6.1925 6.57011C6.66851 5.72905 7.4096 5.06926 8.30008 4.69376C9.19057 4.31825 10.1803 4.24816 11.1148 4.49443C12.0494 4.74069 12.876 5.28945 13.4658 6.05503C14.0556 6.82062 14.3753 7.75994 14.375 8.72636V8.75761C14.0375 9.10261 13.8363 9.53261 13.7725 9.97636H12.165C12.3844 9.59631 12.4999 9.16521 12.4999 8.72637C12.4999 8.28754 12.3844 7.85643 12.165 7.47638C11.9456 7.09634 11.63 6.78074 11.25 6.56132C10.8699 6.34189 10.4388 6.22637 10 6.22636ZM3.4375 11.2264H4.96C5.3225 11.9551 5.8375 12.5939 6.46375 13.1014H3.4375C3.18886 13.1014 2.9504 13.0026 2.77459 12.8268C2.59877 12.651 2.5 12.4125 2.5 12.1639C2.5 11.9152 2.59877 11.6768 2.77459 11.5009C2.9504 11.3251 3.18886 11.2264 3.4375 11.2264Z" fill="#7497F1"/>
</svg>
