<svg width="28" height="28" viewBox="0 0 28 28" fill="none" xmlns="http://www.w3.org/2000/svg">
<path d="M16.1117 25.6667H7.00002C5.70502 25.6667 4.66669 24.6283 4.66669 23.3333V4.66667C4.66669 4.04783 4.91252 3.45434 5.3501 3.01675C5.78769 2.57917 6.38118 2.33334 7.00002 2.33334H16.3334L23.3334 9.33334V15.2717C22.9484 15.2133 22.5634 15.1667 22.1667 15.1667C21.77 15.1667 21.385 15.2133 21 15.2717V10.5H15.1667V4.66667H7.00002V23.3333H15.2717C15.4117 24.1733 15.7034 24.955 16.1117 25.6667ZM26.2967 24.64L23.8117 22.1667L26.2967 19.6933L24.64 18.0483L22.1667 20.5217L19.6934 18.0483L18.0484 19.6933L20.5217 22.1667L18.0484 24.64L19.6934 26.2967L22.1667 23.8117L24.64 26.2967L26.2967 24.64Z" fill="#7497F1"/>
</svg>
