<svg width="28" height="28" viewBox="0 0 28 28" fill="none" xmlns="http://www.w3.org/2000/svg">
<path d="M27.4166 19.8333L21.5833 25.6667L17.5 21.5833L19.25 19.8333L21.5833 22.1667L25.6666 18.0833L27.4166 19.8333ZM15.2716 23.3333H6.99996V4.66667H15.1666V10.5H21V15.2717C21.385 15.2133 21.77 15.1667 22.1666 15.1667C22.5633 15.1667 22.9483 15.2133 23.3333 15.2717V9.33334L16.3333 2.33334H6.99996C6.38112 2.33334 5.78763 2.57917 5.35004 3.01675C4.91246 3.45434 4.66663 4.04783 4.66663 4.66667V23.3333C4.66663 24.6283 5.70496 25.6667 6.99996 25.6667H16.1116C15.7033 24.955 15.4116 24.1733 15.2716 23.3333Z" fill="#7497F1"/>
</svg>
