<svg width="28" height="28" viewBox="0 0 28 28" fill="none" xmlns="http://www.w3.org/2000/svg">
<path d="M11.6667 23.3333H7.00002V4.66667H15.1667V10.5H21V14.1167L23.3334 11.7833V9.33334L16.3334 2.33334H7.00002C5.71669 2.33334 4.66669 3.38334 4.66669 4.66667V23.3333C4.66669 24.6167 5.71669 25.6667 7.00002 25.6667H11.6667V23.3333ZM23.5667 15.1667C23.6834 15.1667 23.9167 15.2833 24.0334 15.4L25.55 16.9167C25.7834 17.15 25.7834 17.6167 25.55 17.85L24.3834 19.0167L21.9334 16.5667L23.1 15.4C23.2167 15.2833 23.3334 15.1667 23.5667 15.1667ZM23.5667 19.7167L16.45 26.8333H14V24.3833L21.1167 17.2667L23.5667 19.7167Z" fill="#7497F1"/>
</svg>
