<svg width="28" height="28" viewBox="0 0 28 28" fill="none" xmlns="http://www.w3.org/2000/svg">
<path d="M16.1117 25.6667H7.00002C5.70502 25.6667 4.66669 24.6283 4.66669 23.3333V4.66667C4.66669 4.04783 4.91252 3.45434 5.3501 3.01675C5.78769 2.57917 6.38118 2.33334 7.00002 2.33334H16.3334L23.3334 9.33334V15.2717C22.9484 15.2133 22.5634 15.1667 22.1667 15.1667C21.77 15.1667 21.385 15.2133 21 15.2717V10.5H15.1667V4.66667H7.00002V23.3333H15.2717C15.4117 24.1733 15.7034 24.955 16.1117 25.6667ZM26.8334 21H23.3334V17.5H21V21H17.5V23.3333H21V26.8333H23.3334V23.3333H26.8334V21Z" fill="#7497F1"/>
</svg>
