<svg width="28" height="28" viewBox="0 0 28 28" fill="none" xmlns="http://www.w3.org/2000/svg">
<path d="M16.3333 2.33334H6.99996C5.71663 2.33334 4.66663 3.38334 4.66663 4.66667V23.3333C4.66663 23.8117 4.80663 24.2667 5.06329 24.64C5.14496 24.7683 5.24996 24.885 5.35496 24.9783C5.77496 25.41 6.35829 25.6667 6.99996 25.6667H15.785C15.1666 24.99 14.7116 24.2083 14.4083 23.3333H6.99996V4.66667H15.1666V10.5H21V14C21.8166 14 22.5983 14.14 23.3333 14.3967V9.33334L16.3333 2.33334ZM21 26.8333L26.8333 21.5833L23.3333 18.4333L21 16.3333V19.8333H16.3333V23.3333H21V26.8333Z" fill="#7497F1"/>
<path d="M16.3333 2.33334H6.99996C5.71663 2.33334 4.66663 3.38334 4.66663 4.66667V23.3333C4.66663 23.8117 4.80663 24.2667 5.06329 24.64C5.14496 24.7683 5.24996 24.885 5.35496 24.9783C5.77496 25.41 6.35829 25.6667 6.99996 25.6667H15.785C15.1666 24.99 14.7116 24.2083 14.4083 23.3333H6.99996V4.66667H15.1666V10.5H21V14C21.8166 14 22.5983 14.14 23.3333 14.3967V9.33334L16.3333 2.33334ZM21 26.8333L26.8333 21.5833L23.3333 18.4333L21 16.3333V19.8333H16.3333V23.3333H21V26.8333Z" fill="#7497F1"/>
</svg>
