<svg width="28" height="28" viewBox="0 0 28 28" fill="none" xmlns="http://www.w3.org/2000/svg">
<path d="M21 25.6667C21.6188 25.6667 22.2123 25.4208 22.6499 24.9832C23.0875 24.5457 23.3333 23.9522 23.3333 23.3333V9.33333L16.3333 2.33333H6.99996C6.38112 2.33333 5.78763 2.57916 5.35004 3.01675C4.91246 3.45433 4.66663 4.04782 4.66663 4.66666V23.3333C4.66663 23.9522 4.91246 24.5457 5.35004 24.9832C5.78763 25.4208 6.38112 25.6667 6.99996 25.6667H21ZM15.1666 4.66666L21 10.5H15.1666V4.66666ZM8.16663 9.33333H11.6666V11.6667H8.16663V9.33333ZM8.16663 14H19.8333V16.3333H8.16663V14ZM8.16663 18.6667H19.8333V21H8.16663V18.6667Z" fill="white"/>
</svg>
