<svg width="28" height="28" viewBox="0 0 28 28" fill="none" xmlns="http://www.w3.org/2000/svg">
<path d="M6.99996 23.3333C6.35829 23.3333 5.80918 23.1051 5.35263 22.6485C4.89607 22.1919 4.6674 21.6424 4.66663 21V18.6667C4.66663 18.3361 4.77863 18.0592 5.00263 17.836C5.22663 17.6128 5.50351 17.5008 5.83329 17.5C6.16307 17.4992 6.44035 17.6112 6.66513 17.836C6.8899 18.0608 7.00151 18.3377 6.99996 18.6667V21H21V18.6667C21 18.3361 21.112 18.0592 21.336 17.836C21.56 17.6128 21.8368 17.5008 22.1666 17.5C22.4964 17.4992 22.7737 17.6112 22.9985 17.836C23.2232 18.0608 23.3348 18.3377 23.3333 18.6667V21C23.3333 21.6417 23.105 22.1912 22.6485 22.6485C22.1919 23.1058 21.6424 23.3341 21 23.3333H6.99996ZM12.8333 9.15833L10.6458 11.3458C10.4125 11.5792 10.1356 11.6912 9.81513 11.6818C9.49468 11.6725 9.2174 11.5508 8.98329 11.3167C8.7694 11.0833 8.6574 10.8111 8.64729 10.5C8.63718 10.1889 8.74918 9.91667 8.98329 9.68333L13.1833 5.48333C13.3 5.36667 13.4263 5.28422 13.5625 5.236C13.6986 5.18778 13.8444 5.16328 14 5.1625C14.1555 5.16172 14.3013 5.18622 14.4375 5.236C14.5736 5.28578 14.7 5.36822 14.8166 5.48333L19.0166 9.68333C19.25 9.91667 19.362 10.1889 19.3526 10.5C19.3433 10.8111 19.2313 11.0833 19.0166 11.3167C18.7833 11.55 18.5064 11.6717 18.186 11.6818C17.8655 11.6919 17.5882 11.5799 17.3541 11.3458L15.1666 9.15833V17.5C15.1666 17.8306 15.0546 18.1078 14.8306 18.3318C14.6066 18.5558 14.3297 18.6674 14 18.6667C13.6702 18.6659 13.3933 18.5539 13.1693 18.3307C12.9453 18.1074 12.8333 17.8306 12.8333 17.5V9.15833Z" fill="#7497F1"/>
</svg>
